<?xml version="1.0" encoding="utf-8"?>
<!-- Generator: Adobe Illustrator 21.0.0, SVG Export Plug-In . SVG Version: 6.00 Build 0)  -->
<svg version="1.1" id="Layer_1" xmlns="http://www.w3.org/2000/svg" xmlns:xlink="http://www.w3.org/1999/xlink" x="0px" y="0px"
	 viewBox="0 0 122.7 32" style="enable-background:new 0 0 122.7 32;" xml:space="preserve">
<style type="text/css">
	.st0{fill:#3D4862;}
</style>
<path class="st0" d="M106.7,0c-4.1,0-7.8,1.5-10.7,4.1C93.2,1.5,89.4,0,85.3,0c-8.8,0-16,7.2-16,16s7.2,16,16,16
	c4.1,0,7.8-1.5,10.7-4.1c2.8,2.5,6.6,4.1,10.7,4.1c8.8,0,16-7.2,16-16S115.5,0,106.7,0z M75.9,19.8l0.9-5.8l-2.1,5.8h-1.2V14
	l-1.1,5.8h-1.6l1.3-7.7h2.4v4.8l1.7-4.8h2.5l-1.3,7.7H75.9L75.9,19.8z M83.3,18.2c-0.1,0.5-0.2,0.9-0.3,1.2v0.4h-1.3v-0.7
	C81.4,19.7,80.8,20,80,20c-0.4,0-0.8-0.1-1.1-0.4c-0.3-0.4-0.4-0.8-0.4-1.3c0-0.8,0.2-1.4,0.7-1.7c0.6-0.4,1.4-0.7,2.2-0.7h0.7v-0.4
	c0-0.4-0.4-0.5-1.1-0.5c-0.4,0-1,0.1-1.7,0.3c0.1-0.4,0.2-0.8,0.3-1.3c0.7-0.3,1.3-0.4,1.8-0.4c1.5,0,2.2,0.6,2.2,1.8
	c0,0.4,0,0.7-0.1,1.2C83.5,17.1,83.4,17.7,83.3,18.2z M88.1,15.1C87.8,15,87.4,15,86.9,15s-0.8,0.2-0.8,0.5c0,0.2,0,0.3,0.1,0.4
	l0.5,0.3c0.8,0.4,1.2,1,1.2,1.7c0,1.4-0.8,2.1-2.5,2.1c-0.8,0-1.4,0-1.7-0.1c0.1-0.4,0.2-0.8,0.3-1.5c0.7,0.2,1.2,0.3,1.5,0.3
	c0.6,0,0.9-0.2,0.9-0.5c0-0.2,0-0.3-0.1-0.4c-0.2-0.2-0.4-0.3-0.7-0.4c-0.8-0.4-1.2-0.9-1.2-1.7c0-1.4,0.8-2.1,2.4-2.1
	c0.8,0,1.3,0,1.6,0.1L88.1,15.1L88.1,15.1z M91.5,15.2h-0.9c0,0.4,0,0.8-0.1,1.2c0,0.1,0,0.3-0.1,0.5c0,0.3-0.1,0.4-0.2,0.5V18
	c0,0.4,0.2,0.5,0.5,0.5c0.2,0,0.3,0,0.5-0.1L91,19.8c-0.3,0.1-0.7,0.1-1.2,0.1c-0.9,0-1.3-0.4-1.3-1.3c0-0.5,0.1-1.1,0.3-1.7
	l0.7-4.2H91l-0.1,0.9h0.8C91.6,13.6,91.5,15.2,91.5,15.2z M96.7,17.3h-3.3c0,0.4,0.1,0.7,0.3,0.9c0.3,0.3,0.7,0.4,1.2,0.4
	s1.1-0.2,1.7-0.5l-0.3,1.6c-0.4,0.2-1,0.3-1.7,0.3c-1.8,0-2.8-0.9-2.8-2.8c0-1.1,0.3-2,0.8-2.6c0.5-0.7,1.2-1.1,2-1.1
	c0.7,0,1.3,0.2,1.7,0.7c0.3,0.4,0.5,0.9,0.5,1.6C96.8,16.4,96.7,16.9,96.7,17.3z M99.3,16.1c-0.3,1-0.5,2.2-0.7,3.7h-1.7l0.1-0.4
	c0.3-2.5,0.6-4.4,0.8-5.8h1.6l-0.1,0.9c0.3-0.4,0.5-0.7,0.8-0.8c0.3-0.3,0.5-0.3,0.8-0.1c-0.1,0.1-0.3,0.7-0.7,1.8
	C99.9,15.4,99.6,15.6,99.3,16.1L99.3,16.1z M105.2,19.7c-0.4,0.2-0.8,0.3-1.5,0.3c-0.9,0-1.6-0.3-2.1-0.9c-0.5-0.5-0.8-1.3-0.8-2.4
	c0-1.3,0.3-2.4,1.1-3.3c0.6-0.9,1.5-1.3,2.6-1.3c0.4,0,1.1,0.1,1.8,0.4l-0.3,1.6c-0.5-0.3-1-0.4-1.5-0.4c-0.7,0-1.2,0.3-1.6,0.8
	c-0.4,0.4-0.5,1.1-0.5,2.1c0,0.6,0.1,1.1,0.4,1.3c0.3,0.4,0.6,0.5,1.1,0.5c0.4,0,0.9-0.1,1.5-0.4L105.2,19.7L105.2,19.7z
	 M111.1,15.9c0,0.3-0.1,0.5-0.1,0.7c-0.1,0.4-0.2,1-0.3,1.8c-0.1,0.7-0.2,1.3-0.3,1.5h-1.3v-0.7c-0.4,0.5-0.9,0.8-1.7,0.8
	c-0.4,0-0.8-0.1-1.1-0.4c-0.3-0.4-0.4-0.8-0.4-1.3c0-0.8,0.2-1.4,0.7-1.7c0.6-0.4,1.3-0.7,2.1-0.7h0.7c0.1-0.1,0.1-0.2,0.1-0.4
	c0-0.4-0.4-0.5-1.1-0.5c-0.4,0-1,0.1-1.7,0.3c0-0.4,0.1-0.8,0.3-1.3c0.7-0.3,1.3-0.4,1.8-0.4c1.5,0,2.2,0.6,2.2,1.8
	C111.2,15.4,111.2,15.6,111.1,15.9L111.1,15.9z M113.7,16.1c-0.2,0.5-0.4,1.8-0.7,3.7h-1.7l0.1-0.4c0.3-1.9,0.6-3.9,0.8-5.8h1.6
	c0,0.4,0,0.7-0.1,0.9c0.3-0.4,0.5-0.7,0.8-0.8c0.4-0.2,0.6-0.2,0.8-0.1c-0.4,0.4-0.6,1.1-0.7,1.8C114.3,15.4,114,15.6,113.7,16.1
	L113.7,16.1z M118.2,19.8l0.1-0.5c-0.4,0.4-0.8,0.7-1.5,0.7s-1.2-0.2-1.5-0.7c-0.4-0.6-0.7-1.2-0.7-1.8c0-1.1,0.3-2.1,0.9-2.8
	c0.4-0.7,1.1-1.1,1.8-1.1c0.5,0,1.1,0.3,1.6,0.8l0.3-2.2h1.7l-1.3,7.7h-1.4V19.8z M80.2,18c0,0.4,0.2,0.7,0.5,0.7
	c0.4,0,0.6-0.1,0.8-0.4c0.3-0.3,0.4-0.7,0.4-1.2h-0.4C80.6,17.1,80.2,17.4,80.2,18L80.2,18z M95.1,15.1c-0.1,0-0.2,0-0.3-0.1h-0.3
	c-0.5,0-0.9,0.4-1.1,1.1h1.8v-0.4l-0.1-0.3C95.2,15.3,95.2,15.2,95.1,15.1L95.1,15.1z M107.6,18c0,0.4,0.2,0.7,0.5,0.7
	s0.6-0.1,0.8-0.4c0.3-0.3,0.4-0.7,0.4-1.2h-0.4C108.1,17.1,107.6,17.4,107.6,18z M117.8,15.1c-0.4,0-0.7,0.2-0.9,0.7
	c-0.2,0.3-0.3,0.7-0.3,1.5s0.3,1.2,0.8,1.2c0.3,0,0.7-0.2,0.9-0.5c0.3-0.4,0.4-0.9,0.4-1.6C118.7,15.5,118.4,15.1,117.8,15.1
	L117.8,15.1z"/>
<path class="st0" d="M10.8,7.7C10.5,6.4,9.6,6,8.4,6H0.1L0,6.4C5.7,7.9,10.5,11,12.6,16.9L10.8,7.7L10.8,7.7z M13.1,19.7l-0.5-2.8
	c-1.1-2.9-3.8-5.6-6.8-6.8L10.1,26h5.5l8.2-20h-5.5L13.1,19.7L13.1,19.7z M27.7,26.1L31,6h-5.2l-3.3,20.1H27.7L27.7,26.1z M41.9,5.7
	c-5.1,0-8.7,2.7-8.7,6.6c0,2.9,2.6,4.5,4.5,5.4c2,1,2.7,1.6,2.7,2.5c0,1.3-1.6,1.9-3.1,1.9c-2.1,0-3.2-0.3-4.9-1l-0.7-0.3L31,25.3
	c1.2,0.6,3.4,1.1,5.8,1.1c5.4,0,9-2.7,9-6.8c0-2.3-1.4-4-4.4-5.4c-1.8-0.9-2.9-1.6-2.9-2.5c0-0.8,0.9-1.7,3-1.7
	c1.7,0,2.9,0.3,3.9,0.8l0.5,0.2l0.7-4.3C45.5,6.1,43.9,5.7,41.9,5.7L41.9,5.7z M55.8,6c-1.3,0-2.2,0.4-2.7,1.7l-7.7,18.4h5.4
	c0.9-2.5,1.1-3,1.1-3c0.6,0,5.9,0,6.6,0c0,0,0.2,0.7,0.6,3H64L59.8,6H55.8L55.8,6z M53.4,18.9c0,0,0.4-1.2,2.1-5.6
	c0,0,0.4-1.2,0.7-1.9l0.4,1.7c1,4.8,1.2,5.8,1.2,5.8C56.9,18.9,54.4,18.9,53.4,18.9z"/>
</svg>
